<?xml version="1.0" encoding="utf-8"?>
<!DOCTYPE svg PUBLIC "-//W3C//DTD SVG 1.1//EN" "http://www.w3.org/Graphics/SVG/1.1/DTD/svg11.dtd">
<svg version="1.1" xmlns="http://www.w3.org/2000/svg" xmlns:xlink="http://www.w3.org/1999/xlink" x="0px" y="0px" viewBox="0 0 1000 1000" enable-background="new 0 0 1000 1000" xml:space="preserve">
<g><g transform="translate(0.000000,511.000000) scale(0.100000,-0.100000)"><path d="M4755.4,4893.9c-68.6-63.9-821.2-764.4-1673.1-1554.8c-852-790.4-1597.4-1493.3-1651.8-1557.2C876.7,1140.5,640,203.4,834.1-568.1c217.7-870.9,1024.7-1500.4,2037.6-1592.7c485.1-45,963.2,63.9,1424.6,321.9c160.9,89.9,153.8,116,87.6-340.8c-184.6-1266.1-350.2-1834.1-646.1-2229.3c-116-156.2-125.4-246.1-30.8-326.6l63.9-54.4h1228.2h1228.2l63.9,54.4c97.1,85.2,85.2,172.8-42.6,338.4c-312.4,402.3-553.8,1159.6-705.3,2210.4c-26,189.3-52,366.8-56.8,395.2c-7.1,47.3,4.7,45,179.9-42.6c830.6-416.5,1772.5-407,2510.9,28.4c213,125.4,586.9,492.2,736,724.2c137.3,215.3,243.8,478,291.1,726.5c52.1,279.3,30.7,693.4-49.7,972.7c-123,414.1-369.2,852-660.2,1164.3c-80.5,87.5-889.9,847.2-1796.2,1692.1C4812.2,5225.2,4980.2,5102.1,4755.4,4893.9z M6601.3,3045.6c1573.7-1464.9,1748.8-1640,1940.6-1959.5C8908.7,485,8958.4-220.2,8674.4-745.6c-108.8-203.5-359.7-499.3-530.1-627.1c-300.5-227.2-662.6-369.2-1046-411.8c-520.6-59.2-1112.3,97-1554.9,404.7c-243.7,170.4-269.8,187-321.8,187c-28.4,0-78.1-21.3-113.6-49.7c-75.7-59.2-78.1-132.5-26-523c158.6-1154.9,347.9-1893.2,612.9-2402l127.8-243.8h-825.9c-454.4,0-825.9,4.7-825.9,9.5c0,4.7,26,54.4,56.8,111.2c158.6,284,295.8,714.7,402.3,1259c63.9,321.8,250.9,1561.9,250.9,1663.7c0,75.7-99.4,175.1-177.5,175.1c-35.5,0-153.8-63.9-291.1-158.6c-546.7-373.9-958.4-492.2-1505.1-435.5c-863.8,94.7-1526.4,601.1-1706.3,1301.6c-156.2,610.6,21.3,1379.7,442.5,1926.4c149.1,194.1,3282.4,3119.1,3325,3104.9C4985,4541.2,5718.6,3864.4,6601.3,3045.6z"/></g></g>
</svg>